<svg id="visual" viewBox="0 0 960 540" width="960" height="540" xmlns="http://www.w3.org/2000/svg" xmlns:xlink="http://www.w3.org/1999/xlink" version="1.1"><rect x="0" y="0" width="960" height="540" fill="#FFF"></rect><defs><linearGradient id="grad1_0" x1="43.8%" y1="0%" x2="100%" y2="100%"><stop offset="14.444444444444446%" stop-color="#ffffff" stop-opacity="1"></stop><stop offset="85.55555555555554%" stop-color="#ffffff" stop-opacity="1"></stop></linearGradient></defs><defs><linearGradient id="grad2_0" x1="0%" y1="0%" x2="56.3%" y2="100%"><stop offset="14.444444444444446%" stop-color="#ffffff" stop-opacity="1"></stop><stop offset="85.55555555555554%" stop-color="#ffffff" stop-opacity="1"></stop></linearGradient></defs><g transform="translate(960, 0)"><path d="M0 405C-79 399.1 -158 393.3 -202.5 350.7C-247 308.2 -256.9 229.1 -284.9 164.5C-312.9 99.9 -359 50 -405 0L0 0Z" fill="#BAEBE1"></path></g><g transform="translate(0, 540)"><path d="M0 -405C48.6 -356.6 97.3 -308.3 162 -280.6C226.7 -252.9 307.6 -245.8 350.7 -202.5C393.9 -159.2 399.5 -79.6 405 0L0 0Z" fill="#BAEBE1"></path></g></svg>